<svg width="512" height="512" viewBox="0 0 512 512" fill="none" xmlns="http://www.w3.org/2000/svg">
<rect width="512" height="512" rx="40" fill="#D9D9D9"/>
<path d="M341.259 204.073V216.268H329.064V204.073H341.259ZM329.064 204.073V216.268H316.868V204.073H329.064ZM316.868 204.073V216.268H304.673V204.073H316.868ZM304.673 204.073V216.268H292.478V204.073H304.673ZM292.478 191.878V204.073H280.283V191.878H292.478ZM304.673 191.878V204.073H292.478V191.878H304.673ZM316.868 191.878V204.073H304.673V191.878H316.868ZM329.064 191.878V204.073H316.868V191.878H329.064ZM341.259 191.878V204.073H329.064V191.878H341.259ZM341.259 179.683V191.878H329.064V179.683H341.259ZM329.064 179.683V191.878H316.868V179.683H329.064ZM316.868 179.683V191.878H304.673V179.683H316.868ZM304.673 179.683V191.878H292.478V179.683H304.673ZM292.478 179.683V191.878H280.283V179.683H292.478ZM316.868 167.488V179.683H304.673V167.488H316.868ZM329.064 167.488V179.683H316.868V167.488H329.064ZM304.673 167.488V179.683H292.478V167.488H304.673ZM304.673 155.293V167.488H292.478V155.293H304.673ZM292.478 155.293V167.488H280.283V155.293H292.478ZM292.478 167.488V179.683H280.283V167.488H292.478ZM280.283 167.488V179.683H268.088V167.488H280.283ZM280.283 155.293V167.488H268.088V155.293H280.283ZM280.283 179.683V191.878H268.088V179.683H280.283ZM268.088 179.683V191.878H255.893V179.683H268.088ZM268.088 191.878V204.073H255.893V191.878H268.088ZM280.283 191.878V204.073H268.088V191.878H280.283ZM255.893 191.878V204.073H243.698V191.878H255.893ZM255.893 179.683V191.878H243.698V179.683H255.893ZM255.893 167.488V179.683H243.698V167.488H255.893ZM255.893 155.293V167.488H243.698V155.293H255.893ZM268.088 155.293V167.488H255.893V155.293H268.088ZM268.088 167.488V179.683H255.893V167.488H268.088ZM243.698 155.293V167.488H231.503V155.293H243.698ZM231.503 155.293V167.488H219.307V155.293H231.503ZM219.307 155.293V167.488H207.112V155.293H219.307ZM219.307 167.488V179.683H207.112V167.488H219.307ZM219.307 179.683V191.878H207.112V179.683H219.307ZM219.307 191.878V204.073H207.112V191.878H219.307ZM231.503 191.878V204.073H219.307V191.878H231.503ZM243.698 191.878V204.073H231.503V191.878H243.698ZM243.698 179.683V191.878H231.503V179.683H243.698ZM243.698 167.488V179.683H231.503V167.488H243.698ZM231.503 167.488V179.683H219.307V167.488H231.503ZM231.503 179.683V191.878H219.307V179.683H231.503ZM207.112 179.683V191.878H194.917V179.683H207.112ZM207.112 167.488V179.683H194.917V167.488H207.112ZM194.917 167.488V179.683H182.722V167.488H194.917ZM194.917 179.683V191.878H182.722V179.683H194.917ZM182.722 179.683V191.878H170.527V179.683H182.722ZM182.722 191.878V204.073H170.527V191.878H182.722ZM182.722 204.073V216.268H170.527V204.073H182.722ZM194.917 204.073V216.268H182.722V204.073H194.917ZM194.917 191.878V204.073H182.722V191.878H194.917ZM207.112 191.878V204.073H194.917V191.878H207.112ZM207.112 204.073V216.268H194.917V204.073H207.112ZM219.307 204.073V216.268H207.112V204.073H219.307ZM231.503 204.073V216.268H219.307V204.073H231.503ZM170.527 204.073V216.268H158.332V204.073H170.527ZM170.527 216.268V228.463H158.332V216.268H170.527ZM170.527 228.463V240.659H158.332V228.463H170.527ZM170.527 313.829V326.024H158.332V313.829H170.527ZM182.722 313.829V326.024H170.527V313.829H182.722ZM182.722 326.024V338.22H170.527V326.024H182.722ZM170.527 326.024V338.22H158.332V326.024H170.527ZM194.917 326.024V338.22H182.722V326.024H194.917ZM207.112 326.024V338.22H194.917V326.024H207.112ZM219.307 326.024V338.22H207.112V326.024H219.307ZM231.503 326.024V338.22H219.307V326.024H231.503ZM219.307 313.829V326.024H207.112V313.829H219.307ZM219.307 228.463V240.659H207.112V228.463H219.307ZM219.307 216.268V228.463H207.112V216.268H219.307ZM207.112 216.268V228.463H194.917V216.268H207.112ZM194.917 216.268V228.463H182.722V216.268H194.917ZM182.722 216.268V228.463H170.527V216.268H182.722ZM182.722 228.463V240.659H170.527V228.463H182.722ZM194.917 313.829V326.024H182.722V313.829H194.917ZM207.112 313.829V326.024H194.917V313.829H207.112ZM194.917 228.463V240.659H182.722V228.463H194.917ZM207.112 228.463V240.659H194.917V228.463H207.112ZM304.673 301.634V313.829H292.478V301.634H304.673ZM304.673 313.829V326.024H292.478V313.829H304.673ZM316.868 313.829V326.024H304.673V313.829H316.868ZM329.064 313.829V326.024H316.868V313.829H329.064ZM341.259 313.829V326.024H329.064V313.829H341.259ZM353.454 313.829V326.024H341.259V313.829H353.454ZM353.454 301.634V313.829H341.259V301.634H353.454ZM341.259 301.634V313.829H329.064V301.634H341.259ZM329.064 301.634V313.829H316.868V301.634H329.064ZM316.868 301.634V313.829H304.673V301.634H316.868ZM353.454 326.024V338.22H341.259V326.024H353.454ZM341.259 326.024V338.22H329.064V326.024H341.259ZM329.064 326.024V338.22H316.868V326.024H329.064ZM316.868 326.024V338.22H304.673V326.024H316.868ZM304.673 326.024V338.22H292.478V326.024H304.673ZM292.478 326.024V338.22H280.283V326.024H292.478ZM292.478 338.22V350.415H280.283V338.22H292.478ZM304.673 338.22V350.415H292.478V338.22H304.673ZM316.868 338.22V350.415H304.673V338.22H316.868ZM329.064 338.22V350.415H316.868V338.22H329.064ZM329.064 350.415V362.61H316.868V350.415H329.064ZM341.259 350.415V362.61H329.064V350.415H341.259ZM341.259 338.22V350.415H329.064V338.22H341.259ZM329.064 362.61V374.805H316.868V362.61H329.064ZM316.868 362.61V374.805H304.673V362.61H316.868ZM316.868 350.415V362.61H304.673V350.415H316.868ZM304.673 350.415V362.61H292.478V350.415H304.673ZM304.673 362.61V374.805H292.478V362.61H304.673ZM304.673 374.805V387H292.478V374.805H304.673ZM292.478 374.805V387H280.283V374.805H292.478ZM280.283 374.805V387H268.088V374.805H280.283ZM268.088 374.805V387H255.893V374.805H268.088ZM255.893 374.805V387H243.698V374.805H255.893ZM243.698 374.805V387H231.503V374.805H243.698ZM231.503 374.805V387H219.307V374.805H231.503ZM219.307 374.805V387H207.112V374.805H219.307ZM231.503 362.61V374.805H219.307V362.61H231.503ZM243.698 362.61V374.805H231.503V362.61H243.698ZM255.893 362.61V374.805H243.698V362.61H255.893ZM268.088 362.61V374.805H255.893V362.61H268.088ZM280.283 362.61V374.805H268.088V362.61H280.283ZM292.478 362.61V374.805H280.283V362.61H292.478ZM292.478 350.415V362.61H280.283V350.415H292.478ZM280.283 350.415V362.61H268.088V350.415H280.283ZM268.088 350.415V362.61H255.893V350.415H268.088ZM255.893 350.415V362.61H243.698V350.415H255.893ZM243.698 350.415V362.61H231.503V350.415H243.698ZM231.503 350.415V362.61H219.307V350.415H231.503ZM219.307 362.61V374.805H207.112V362.61H219.307ZM207.112 362.61V374.805H194.917V362.61H207.112ZM194.917 362.61V374.805H182.722V362.61H194.917ZM194.917 350.415V362.61H182.722V350.415H194.917ZM182.722 350.415V362.61H170.527V350.415H182.722ZM182.722 338.22V350.415H170.527V338.22H182.722ZM194.917 338.22V350.415H182.722V338.22H194.917ZM207.112 338.22V350.415H194.917V338.22H207.112ZM219.307 338.22V350.415H207.112V338.22H219.307ZM231.503 338.22V350.415H219.307V338.22H231.503ZM243.698 338.22V350.415H231.503V338.22H243.698ZM255.893 338.22V350.415H243.698V338.22H255.893ZM268.088 338.22V350.415H255.893V338.22H268.088ZM280.283 338.22V350.415H268.088V338.22H280.283ZM219.307 350.415V362.61H207.112V350.415H219.307ZM207.112 350.415V362.61H194.917V350.415H207.112ZM329.064 277.244V289.439H316.868V277.244H329.064ZM353.454 289.439V301.634H341.259V289.439H353.454ZM341.259 289.439V301.634H329.064V289.439H341.259ZM329.064 289.439V301.634H316.868V289.439H329.064ZM316.868 289.439V301.634H304.673V289.439H316.868ZM316.868 277.244V289.439H304.673V277.244H316.868ZM304.673 277.244V289.439H292.478V277.244H304.673ZM304.673 289.439V301.634H292.478V289.439H304.673ZM231.503 228.463V240.659H219.307V228.463H231.503ZM182.722 240.659V252.854H170.527V240.659H182.722ZM182.722 252.854V265.049H170.527V252.854H182.722ZM194.917 252.854V265.049H182.722V252.854H194.917ZM194.917 265.049V277.244H182.722V265.049H194.917ZM207.112 265.049V277.244H194.917V265.049H207.112ZM219.307 277.244V289.439H207.112V277.244H219.307ZM219.307 265.049V277.244H207.112V265.049H219.307ZM219.307 252.854V265.049H207.112V252.854H219.307ZM219.307 240.659V252.854H207.112V240.659H219.307ZM207.112 240.659V252.854H194.917V240.659H207.112ZM207.112 252.854V265.049H194.917V252.854H207.112ZM194.917 240.659V252.854H182.722V240.659H194.917ZM231.503 277.244V289.439H219.307V277.244H231.503ZM243.698 277.244V289.439H231.503V277.244H243.698ZM255.893 277.244V289.439H243.698V277.244H255.893ZM268.088 277.244V289.439H255.893V277.244H268.088ZM268.088 265.049V277.244H255.893V265.049H268.088ZM255.893 265.049V277.244H243.698V265.049H255.893ZM243.698 265.049V277.244H231.503V265.049H243.698ZM231.503 265.049V277.244H219.307V265.049H231.503ZM231.503 252.854V265.049H219.307V252.854H231.503ZM231.503 240.659V252.854H219.307V240.659H231.503ZM243.698 240.659V252.854H231.503V240.659H243.698ZM255.893 240.659V252.854H243.698V240.659H255.893ZM268.088 240.659V252.854H255.893V240.659H268.088ZM268.088 252.854V265.049H255.893V252.854H268.088ZM255.893 252.854V265.049H243.698V252.854H255.893ZM243.698 252.854V265.049H231.503V252.854H243.698ZM280.283 240.659V252.854H268.088V240.659H280.283ZM292.478 240.659V252.854H280.283V240.659H292.478ZM292.478 252.854V265.049H280.283V252.854H292.478ZM292.478 265.049V277.244H280.283V265.049H292.478ZM292.478 277.244V289.439H280.283V277.244H292.478ZM280.283 277.244V289.439H268.088V277.244H280.283ZM280.283 265.049V277.244H268.088V265.049H280.283ZM280.283 252.854V265.049H268.088V252.854H280.283ZM292.478 289.439V301.634H280.283V289.439H292.478ZM304.673 240.659V252.854H292.478V240.659H304.673ZM341.259 277.244V289.439H329.064V277.244H341.259ZM341.259 265.049V277.244H329.064V265.049H341.259ZM329.064 252.854V265.049H316.868V252.854H329.064ZM316.868 252.854V265.049H304.673V252.854H316.868ZM304.673 252.854V265.049H292.478V252.854H304.673ZM304.673 265.049V277.244H292.478V265.049H304.673ZM316.868 265.049V277.244H304.673V265.049H316.868ZM329.064 265.049V277.244H316.868V265.049H329.064ZM292.478 204.073V216.268H280.283V204.073H292.478Z" fill="black"/>
</svg>
